<svg id="Layer_1" xmlns="http://www.w3.org/2000/svg" viewBox="0 0 456 285"><style>.st0{fill:none;stroke:#fff;stroke-width:9;stroke-linecap:round;stroke-linejoin:round;stroke-miterlimit:10}</style><g id="Layer_7"><path class="st0" d="M184 155l-.1-24.2m1 63.3c-1-3.6-.8-6-.8-10v-3.2M258 84.2v99.9c0 22.4-16.6 40.7-37 40.7-9.9 0-19-4.4-25.6-11.4M93.3 84.2v99.9c0 22.4-16.6 40.7-37 40.7-9.9 0-19-4.4-25.6-11.4M318.4 237.6v-99.9M258 168.8c0-13.8 10-25 22.2-25s22.2 11.3 22.2 25v32.3M378 168.8c0-13.8 10-25 22.2-25s22.2 11.3 22.2 25v32.3M318.4 238.3c0 13.8-10 25-22.2 25S274 252 274 238.3V206M377.7 90.8v106.8c0 13.8-10 25-22.2 25H345M302.4 50.6V118c0 13.8-10 25-22.2 25S258 131.7 258 118"/><path class="st0" d="M302.4 118V50.6c0-13.8 10-25 22.2-25s22.2 11.3 22.2 25M422 50.6V118c0 13.8-10 25-22.2 25s-22.2-11.3-22.2-25M422 118V50.6M386.4 59.5c0 12.2-11.3 22.2-25 22.2M377.7 50.6c0-13.8 10-25 22.2-25s22.2 11.3 22.2 25M137.8 110v67.3M137.8 177.3V110M93.5 109.3c0-13.8 10-25 22.2-25s22.2 11.3 22.2 25M377.7 118V89.8"/></g><g id="Layer_9"><path class="st0" d="M243.4 197v-25.5s-25.5-28.8-54.2-5.2M243.4 149.5v-43.2c0-12.1-9.9-22-22-22s-22 9.9-22 22M182.1 106.6c0-12.1-9.9-22-22-22s-22 9.9-22 22"/><path class="st0" d="M199.4 162.1V187c0 12.1-9.9 22-22 22s-22-9.9-22-22M199.4 133.6v14M199.4 106.3v12.8M189.5 166c-4.3 3.3-9.7 5.3-15.6 5.3-14.1 0-25.5-11.4-25.5-25.5 0-10.1 5.8-18.8 14.3-22.9M162.7 122.9s33.8-21.1 80.7 27.2M318.3 239.5v-13.3c0-13.8 9.8-25 21.8-25h21.2M318.3 181.5v-13.3c0-13.8 9.8-25 21.8-25h21.2M318.3 120v-13.3c0-13.8 9.8-25 21.8-25h21.2"/></g></svg>